<?xml version="1.0" standalone="no"?>
<!DOCTYPE svg PUBLIC "-//W3C//DTD SVG 20010904//EN"
 "http://www.w3.org/TR/2001/REC-SVG-20010904/DTD/svg10.dtd">
<svg version="1.0" xmlns="http://www.w3.org/2000/svg"
 width="949.000000pt" height="946.000000pt" viewBox="0 0 949.000000 946.000000"
 preserveAspectRatio="xMidYMid meet">

<g transform="translate(0.000000,946.000000) scale(0.100000,-0.100000)"
fill="#000000" stroke="none">
<path d="M4505 9385 c-844 -75 -1600 -353 -2293 -842 -141 -99 -365 -286 -498
-414 -416 -402 -724 -825 -970 -1334 -394 -814 -535 -1726 -409 -2635 61 -436
205 -917 392 -1311 377 -792 965 -1457 1703 -1925 674 -428 1421 -663 2236
-705 776 -40 1569 127 2259 473 878 441 1572 1121 2030 1988 160 304 266 574
364 932 294 1076 172 2274 -332 3258 -380 741 -900 1324 -1582 1775 -654 431
-1398 683 -2204 745 -175 13 -519 11 -696 -5z m641 -485 c733 -53 1444 -305
2049 -726 66 -46 134 -95 150 -110 26 -23 22 -21 -35 9 -551 296 -1168 439
-1815 424 -301 -8 -505 -33 -773 -99 -983 -238 -1823 -865 -2334 -1743 -80
-136 -213 -423 -272 -582 -253 -692 -291 -1459 -106 -2185 64 -253 136 -448
255 -696 269 -556 670 -1030 1185 -1399 633 -453 1442 -703 2200 -679 610 18
1148 153 1619 404 58 31 101 51 98 45 -4 -6 -69 -53 -144 -106 -559 -387
-1141 -619 -1787 -712 -544 -79 -1066 -51 -1610 86 -966 243 -1832 858 -2391
1699 -307 461 -503 934 -609 1470 -153 765 -89 1537 186 2264 418 1106 1304
1983 2418 2394 355 131 710 207 1145 245 92 8 440 6 571 -3z m864 -820 c621
-54 1206 -277 1695 -645 723 -543 1180 -1332 1297 -2235 17 -138 17 -659 0
-790 -85 -628 -323 -1190 -706 -1665 -164 -204 -427 -452 -642 -607 -715 -513
-1605 -717 -2479 -567 -383 66 -776 212 -1110 412 -91 54 -316 206 -340 229
-5 6 42 -16 105 -49 587 -300 1300 -388 1965 -242 282 62 640 206 890 359 463
282 849 698 1094 1179 219 430 322 858 322 1341 1 206 -10 330 -42 520 -96
567 -379 1121 -784 1539 -473 488 -1069 786 -1765 882 -146 21 -594 18 -750
-4 -216 -31 -440 -86 -629 -156 -123 -46 -250 -101 -304 -133 -66 -39 -107
-59 -107 -54 0 7 217 159 295 206 366 224 749 369 1160 440 270 47 584 62 835
40z m-1556 -1762 c196 -1004 456 -2322 460 -2325 6 -6 118 51 206 105 85 52
156 108 249 196 53 51 63 57 58 36 -3 -14 -38 -180 -77 -370 -39 -190 -103
-493 -141 -675 -38 -181 -69 -333 -69 -337 0 -5 -102 -8 -227 -8 l-228 0 -108
468 c-235 1009 -428 1838 -433 1852 -4 11 -27 -8 -80 -65 -145 -156 -286 -353
-410 -571 -37 -66 -68 -121 -70 -123 -2 -2 -4 485 -4 1082 l0 1087 403 0 402
0 69 -352z m1736 -1513 l0 -1865 -280 0 -280 0 -2 1168 -3 1167 -38 -185 c-55
-265 -121 -422 -243 -580 -83 -107 -232 -237 -348 -304 l-49 -29 7 34 c3 19
108 574 232 1234 124 660 227 1206 229 1213 3 9 90 12 390 12 l385 0 0 -1865z
m-2050 -820 l0 -1045 -280 0 -280 0 0 566 0 567 36 101 c73 203 192 426 332
621 58 81 182 235 189 235 2 0 3 -470 3 -1045z"/>
</g>
</svg>
