<?xml version="1.0" standalone="no"?>
<!DOCTYPE svg PUBLIC "-//W3C//DTD SVG 20010904//EN"
 "http://www.w3.org/TR/2001/REC-SVG-20010904/DTD/svg10.dtd">
<svg version="1.0" xmlns="http://www.w3.org/2000/svg"
 width="300.000000pt" height="300.000000pt" viewBox="0 0 300.000000 300.000000"
 preserveAspectRatio="xMidYMid meet">

<g transform="translate(0.000000,300.000000) scale(0.100000,-0.100000)"
fill="#000000" stroke="none">
<path d="M1380 2724 c-228 -28 -448 -112 -611 -234 -97 -73 -246 -235 -308
-334 -177 -286 -227 -651 -135 -981 30 -107 115 -286 176 -370 l43 -60 6 400
c5 369 7 407 28 485 45 173 155 354 278 458 61 51 101 56 132 16 34 -43 26
-62 -52 -138 -113 -109 -177 -215 -218 -361 -21 -77 -23 -100 -26 -546 l-4
-466 68 -52 c37 -28 71 -51 74 -51 4 0 9 215 11 478 5 447 6 482 26 555 63
231 227 384 478 447 75 19 106 22 199 17 120 -6 255 -42 294 -78 41 -38 16
-119 -36 -119 -15 0 -59 11 -98 25 -202 69 -432 25 -570 -110 -61 -59 -117
-163 -135 -249 -7 -33 -9 -229 -8 -555 l3 -505 75 -27 c41 -15 81 -28 88 -28
9 -1 12 70 12 324 0 312 1 326 20 345 26 26 74 26 100 0 19 -19 20 -33 20
-359 0 -381 -7 -351 81 -351 l49 0 0 533 c0 594 -2 577 66 577 21 0 42 -8 54
-20 20 -20 20 -33 20 -555 l0 -535 28 0 c15 0 44 3 65 6 l38 7 -3 556 -3 556
-23 40 c-36 62 -82 89 -163 93 -60 4 -74 1 -114 -22 -70 -42 -88 -86 -93 -229
-4 -111 -5 -118 -29 -137 -33 -26 -54 -25 -88 2 l-27 21 4 136 c4 114 8 144
27 188 26 59 100 134 156 157 145 61 320 26 415 -82 76 -86 74 -70 78 -689 2
-357 6 -553 13 -553 5 0 46 14 90 31 l80 31 -3 526 -3 527 -26 71 c-29 78 -26
103 15 130 41 26 72 12 101 -46 52 -102 55 -137 55 -642 0 -378 3 -468 13
-468 7 0 44 25 81 56 l67 56 -3 441 c-4 417 -5 447 -26 522 -76 278 -280 486
-557 566 -116 34 -331 34 -458 0 -81 -22 -89 -22 -112 -7 -32 21 -42 62 -24
95 12 21 33 31 99 50 76 22 104 25 270 25 173 0 191 -2 273 -27 173 -53 300
-130 419 -255 111 -117 182 -246 234 -427 15 -51 18 -120 21 -444 l4 -384 20
29 c138 203 206 408 216 646 8 175 -7 287 -59 445 -135 413 -475 715 -913 808
-71 15 -291 27 -355 19z"/>
</g>
</svg>
